<svg width="374" height="48" viewBox="0 0 374 48" fill="none" xmlns="http://www.w3.org/2000/svg">
<rect opacity="0.074168" width="374" height="48" rx="3" fill="white"/>
<path d="M151.953 26.0078C151.953 25.8047 151.935 25.6198 151.898 25.4531C151.862 25.2865 151.784 25.1328 151.664 24.9922C151.549 24.8516 151.38 24.7109 151.156 24.5703C150.938 24.4297 150.651 24.2839 150.297 24.1328C149.875 23.9557 149.466 23.7682 149.07 23.5703C148.674 23.3672 148.318 23.1328 148 22.8672C147.682 22.6016 147.43 22.2891 147.242 21.9297C147.06 21.5651 146.969 21.138 146.969 20.6484C146.969 20.1693 147.055 19.7344 147.227 19.3438C147.404 18.9531 147.654 18.6198 147.977 18.3438C148.299 18.0625 148.677 17.8464 149.109 17.6953C149.547 17.5443 150.034 17.4688 150.57 17.4688C151.299 17.4688 151.93 17.6198 152.461 17.9219C152.997 18.224 153.411 18.638 153.703 19.1641C154 19.6901 154.148 20.2943 154.148 20.9766H151.867C151.867 20.6536 151.82 20.3698 151.727 20.125C151.638 19.875 151.495 19.6797 151.297 19.5391C151.099 19.3984 150.844 19.3281 150.531 19.3281C150.24 19.3281 149.997 19.388 149.805 19.5078C149.617 19.6224 149.477 19.7812 149.383 19.9844C149.294 20.1823 149.25 20.4062 149.25 20.6562C149.25 20.8438 149.294 21.013 149.383 21.1641C149.477 21.3099 149.604 21.4427 149.766 21.5625C149.927 21.6771 150.117 21.7891 150.336 21.8984C150.56 22.0078 150.805 22.1146 151.07 22.2188C151.586 22.4219 152.042 22.6458 152.438 22.8906C152.833 23.1302 153.164 23.401 153.43 23.7031C153.695 24 153.896 24.3359 154.031 24.7109C154.167 25.0859 154.234 25.513 154.234 25.9922C154.234 26.4661 154.151 26.8984 153.984 27.2891C153.823 27.6745 153.586 28.0078 153.273 28.2891C152.961 28.5651 152.583 28.7786 152.141 28.9297C151.703 29.0807 151.214 29.1562 150.672 29.1562C150.146 29.1562 149.648 29.0833 149.18 28.9375C148.711 28.7865 148.297 28.5599 147.938 28.2578C147.583 27.9505 147.305 27.5625 147.102 27.0938C146.898 26.6198 146.797 26.0599 146.797 25.4141H149.086C149.086 25.7578 149.12 26.0521 149.188 26.2969C149.255 26.5365 149.359 26.7292 149.5 26.875C149.641 27.0156 149.812 27.1224 150.016 27.1953C150.224 27.263 150.461 27.2969 150.727 27.2969C151.029 27.2969 151.268 27.2396 151.445 27.125C151.628 27.0104 151.758 26.8568 151.836 26.6641C151.914 26.4714 151.953 26.2526 151.953 26.0078ZM161.891 17.625H164.172V25.4375C164.172 26.3125 164.01 27.026 163.688 27.5781C163.37 28.125 162.93 28.526 162.367 28.7812C161.805 29.0312 161.161 29.1562 160.438 29.1562C159.708 29.1562 159.06 29.0312 158.492 28.7812C157.924 28.526 157.482 28.125 157.164 27.5781C156.852 27.026 156.695 26.3125 156.695 25.4375V17.625H158.977V25.4375C158.977 25.9323 159.031 26.3125 159.141 26.5781C159.255 26.8438 159.419 27.026 159.633 27.125C159.852 27.2188 160.12 27.2656 160.438 27.2656C160.76 27.2656 161.026 27.2188 161.234 27.125C161.448 27.026 161.609 26.8438 161.719 26.5781C161.833 26.3125 161.891 25.9323 161.891 25.4375V17.625ZM170.758 24.0391H168.43L168.422 22.3828H170.406C170.719 22.3828 170.974 22.3307 171.172 22.2266C171.375 22.1172 171.523 21.9583 171.617 21.75C171.716 21.5365 171.766 21.2786 171.766 20.9766C171.766 20.6276 171.721 20.349 171.633 20.1406C171.544 19.9271 171.401 19.7708 171.203 19.6719C171.005 19.5729 170.747 19.5234 170.43 19.5234H169.211V29H166.922V17.625H170.43C170.997 17.625 171.505 17.6875 171.953 17.8125C172.401 17.9375 172.781 18.1276 173.094 18.3828C173.406 18.638 173.643 18.9609 173.805 19.3516C173.971 19.7422 174.055 20.2031 174.055 20.7344C174.055 21.2031 173.961 21.6354 173.773 22.0312C173.586 22.4271 173.292 22.75 172.891 23C172.495 23.25 171.977 23.3906 171.336 23.4219L170.758 24.0391ZM170.68 29H167.781L168.695 27.1094H170.68C170.982 27.1094 171.227 27.0443 171.414 26.9141C171.602 26.7839 171.737 26.6094 171.82 26.3906C171.904 26.1667 171.945 25.9115 171.945 25.625C171.945 25.3021 171.906 25.0208 171.828 24.7812C171.755 24.5417 171.633 24.3594 171.461 24.2344C171.289 24.1042 171.057 24.0391 170.766 24.0391H168.797L168.812 22.3828H171.203L171.742 23.0391C172.352 23.0182 172.839 23.1354 173.203 23.3906C173.568 23.6406 173.828 23.9688 173.984 24.375C174.146 24.776 174.227 25.2031 174.227 25.6562C174.227 26.3854 174.089 27 173.812 27.5C173.542 27.9948 173.143 28.3698 172.617 28.625C172.091 28.875 171.445 29 170.68 29ZM181.719 26.0078C181.719 25.8047 181.701 25.6198 181.664 25.4531C181.628 25.2865 181.549 25.1328 181.43 24.9922C181.315 24.8516 181.146 24.7109 180.922 24.5703C180.703 24.4297 180.417 24.2839 180.062 24.1328C179.641 23.9557 179.232 23.7682 178.836 23.5703C178.44 23.3672 178.083 23.1328 177.766 22.8672C177.448 22.6016 177.195 22.2891 177.008 21.9297C176.826 21.5651 176.734 21.138 176.734 20.6484C176.734 20.1693 176.82 19.7344 176.992 19.3438C177.169 18.9531 177.419 18.6198 177.742 18.3438C178.065 18.0625 178.443 17.8464 178.875 17.6953C179.312 17.5443 179.799 17.4688 180.336 17.4688C181.065 17.4688 181.695 17.6198 182.227 17.9219C182.763 18.224 183.177 18.638 183.469 19.1641C183.766 19.6901 183.914 20.2943 183.914 20.9766H181.633C181.633 20.6536 181.586 20.3698 181.492 20.125C181.404 19.875 181.26 19.6797 181.062 19.5391C180.865 19.3984 180.609 19.3281 180.297 19.3281C180.005 19.3281 179.763 19.388 179.57 19.5078C179.383 19.6224 179.242 19.7812 179.148 19.9844C179.06 20.1823 179.016 20.4062 179.016 20.6562C179.016 20.8438 179.06 21.013 179.148 21.1641C179.242 21.3099 179.37 21.4427 179.531 21.5625C179.693 21.6771 179.883 21.7891 180.102 21.8984C180.326 22.0078 180.57 22.1146 180.836 22.2188C181.352 22.4219 181.807 22.6458 182.203 22.8906C182.599 23.1302 182.93 23.401 183.195 23.7031C183.461 24 183.661 24.3359 183.797 24.7109C183.932 25.0859 184 25.513 184 25.9922C184 26.4661 183.917 26.8984 183.75 27.2891C183.589 27.6745 183.352 28.0078 183.039 28.2891C182.727 28.5651 182.349 28.7786 181.906 28.9297C181.469 29.0807 180.979 29.1562 180.438 29.1562C179.911 29.1562 179.414 29.0833 178.945 28.9375C178.477 28.7865 178.062 28.5599 177.703 28.2578C177.349 27.9505 177.07 27.5625 176.867 27.0938C176.664 26.6198 176.562 26.0599 176.562 25.4141H178.852C178.852 25.7578 178.885 26.0521 178.953 26.2969C179.021 26.5365 179.125 26.7292 179.266 26.875C179.406 27.0156 179.578 27.1224 179.781 27.1953C179.99 27.263 180.227 27.2969 180.492 27.2969C180.794 27.2969 181.034 27.2396 181.211 27.125C181.393 27.0104 181.523 26.8568 181.602 26.6641C181.68 26.4714 181.719 26.2526 181.719 26.0078ZM191.969 25.2109H194.242C194.211 26.0651 194.039 26.7865 193.727 27.375C193.414 27.9583 192.969 28.401 192.391 28.7031C191.818 29.0052 191.125 29.1562 190.312 29.1562C189.682 29.1562 189.122 29.0521 188.633 28.8438C188.143 28.6302 187.727 28.3177 187.383 27.9062C187.039 27.4948 186.779 26.987 186.602 26.3828C186.43 25.7734 186.344 25.0729 186.344 24.2812V22.3516C186.344 21.5599 186.435 20.8594 186.617 20.25C186.805 19.6406 187.07 19.1302 187.414 18.7188C187.763 18.3021 188.182 17.9896 188.672 17.7812C189.167 17.5677 189.724 17.4609 190.344 17.4609C191.172 17.4609 191.865 17.6172 192.422 17.9297C192.979 18.2422 193.409 18.6979 193.711 19.2969C194.018 19.8906 194.203 20.6172 194.266 21.4766H191.984C191.969 20.9349 191.906 20.5104 191.797 20.2031C191.693 19.8906 191.526 19.6719 191.297 19.5469C191.068 19.4167 190.75 19.3516 190.344 19.3516C190.042 19.3516 189.781 19.4062 189.562 19.5156C189.344 19.6198 189.164 19.7891 189.023 20.0234C188.883 20.2578 188.779 20.5651 188.711 20.9453C188.648 21.3255 188.617 21.7891 188.617 22.3359V24.2812C188.617 24.8177 188.646 25.276 188.703 25.6562C188.76 26.0312 188.852 26.3385 188.977 26.5781C189.102 26.8177 189.271 26.9922 189.484 27.1016C189.703 27.2109 189.979 27.2656 190.312 27.2656C190.698 27.2656 191.008 27.2083 191.242 27.0938C191.482 26.9792 191.659 26.7734 191.773 26.4766C191.888 26.1797 191.953 25.7578 191.969 25.2109ZM196.68 17.625H200.328C201.089 17.625 201.737 17.7552 202.273 18.0156C202.81 18.276 203.221 18.6615 203.508 19.1719C203.794 19.6823 203.938 20.3125 203.938 21.0625C203.938 21.6771 203.854 22.2031 203.688 22.6406C203.521 23.0729 203.284 23.4349 202.977 23.7266C202.669 24.013 202.302 24.2422 201.875 24.4141L201.18 24.8281H198.219L198.211 22.9297H200.266C200.578 22.9297 200.836 22.862 201.039 22.7266C201.247 22.5859 201.401 22.3906 201.5 22.1406C201.604 21.8854 201.656 21.5885 201.656 21.25C201.656 20.8906 201.609 20.5833 201.516 20.3281C201.427 20.0677 201.284 19.8698 201.086 19.7344C200.893 19.5938 200.641 19.5234 200.328 19.5234H198.969V29H196.68V17.625ZM201.844 29L199.758 23.9297L202.156 23.9219L204.289 28.8906V29H201.844ZM208.906 17.625V29H206.633V17.625H208.906ZM215.695 24.0391H213.367L213.359 22.3828H215.344C215.656 22.3828 215.911 22.3307 216.109 22.2266C216.312 22.1172 216.461 21.9583 216.555 21.75C216.654 21.5365 216.703 21.2786 216.703 20.9766C216.703 20.6276 216.659 20.349 216.57 20.1406C216.482 19.9271 216.339 19.7708 216.141 19.6719C215.943 19.5729 215.685 19.5234 215.367 19.5234H214.148V29H211.859V17.625H215.367C215.935 17.625 216.443 17.6875 216.891 17.8125C217.339 17.9375 217.719 18.1276 218.031 18.3828C218.344 18.638 218.581 18.9609 218.742 19.3516C218.909 19.7422 218.992 20.2031 218.992 20.7344C218.992 21.2031 218.898 21.6354 218.711 22.0312C218.523 22.4271 218.229 22.75 217.828 23C217.432 23.25 216.914 23.3906 216.273 23.4219L215.695 24.0391ZM215.617 29H212.719L213.633 27.1094H215.617C215.919 27.1094 216.164 27.0443 216.352 26.9141C216.539 26.7839 216.674 26.6094 216.758 26.3906C216.841 26.1667 216.883 25.9115 216.883 25.625C216.883 25.3021 216.844 25.0208 216.766 24.7812C216.693 24.5417 216.57 24.3594 216.398 24.2344C216.227 24.1042 215.995 24.0391 215.703 24.0391H213.734L213.75 22.3828H216.141L216.68 23.0391C217.289 23.0182 217.776 23.1354 218.141 23.3906C218.505 23.6406 218.766 23.9688 218.922 24.375C219.083 24.776 219.164 25.2031 219.164 25.6562C219.164 26.3854 219.026 27 218.75 27.5C218.479 27.9948 218.081 28.3698 217.555 28.625C217.029 28.875 216.383 29 215.617 29ZM228.367 27.1094V29H223.422V27.1094H228.367ZM224.133 17.625V29H221.844V17.625H224.133ZM227.703 22.2344V24.0703H223.422V22.2344H227.703ZM228.352 17.625V19.5234H223.422V17.625H228.352Z" fill="white"/>
</svg>
